# xmcd
#
# Track frame offsets: 
#        182
#        16350
#        34537
#        46147
#        62302
#        84077
#        100275
#        114132
#        135815
#        157357
#        172672
#        182772
#        192137
#        205710
#        225410
#        241337
#        251725
#        263182
#
# Disc length: 3671 seconds
#
# Revision: 1
# Processed by: cddbd v1.5.2PL0 Copyright (c) Steve Scherf et al.
# Submitted via: ExactAudioCopy v1.1
#
DISCID=d10e5512
DTITLE=Willie Nelson - Country Classics Willie Nelson CD 1
DYEAR=1995
DGENRE=Country
TTITLE0=Always On My Mind
TTITLE1=Help Me Make It Through the Night
TTITLE2=Mona Lisa
TTITLE3=Blue Skies
TTITLE4=City Of New Orleans
TTITLE5=Partners After All
TTITLE6=My Heroes Have Always Been Cowboys
TTITLE7=Poncho And Lefty
TTITLE8=Graceland
TTITLE9=Living In The Promiseland
TTITLE10=Bring Me Sunshine
TTITLE11=Blackjack Country Chain
TTITLE12=Fire And Rain
TTITLE13=Georgia On My Mind
TTITLE14=Let It Be Me
TTITLE15=There'll Be No Teardrops Tonight
TTITLE16=I Hope So
TTITLE17=Willingly
EXTD=Reader's digest collection
EXTT0=
EXTT1=
EXTT2=
EXTT3=
EXTT4=
EXTT5=
EXTT6=
EXTT7=
EXTT8=
EXTT9=
EXTT10=
EXTT11=
EXTT12=
EXTT13=
EXTT14=
EXTT15=
EXTT16=
EXTT17=
PLAYORDER=
